<?xml version="1.0" encoding="utf-8"?>
<!-- Generator: Adobe Illustrator 25.4.1, SVG Export Plug-In . SVG Version: 6.00 Build 0)  -->
<svg version="1.1" id="Capa_1" xmlns="http://www.w3.org/2000/svg" xmlns:xlink="http://www.w3.org/1999/xlink" x="0px" y="0px"
	 viewBox="0 0 384 512" style="enable-background:new 0 0 384 512;" xml:space="preserve">
<style type="text/css">
	.st0{fill:#FDAEFF;}
</style>
<path class="st0" d="M80,176c0-61.9,50.1-112,112-112s112,50.1,112,112s-50.1,112-112,112S80,237.9,80,176z M224,349.1
	c81.9-15,144-86.8,144-173.1C368,78.8,289.2,0,192,0S16,78.8,16,176c0,86.3,62.1,158.1,144,173.1V384h-32c-17.7,0-32,14.3-32,32
	s14.3,32,32,32h32v32c0,17.7,14.3,32,32,32s32-14.3,32-32v-32h32c17.7,0,32-14.3,32-32s-14.3-32-32-32h-32V349.1z"/>
</svg>
