<?xml version="1.0" encoding="utf-8"?>
<!-- Generator: Adobe Illustrator 25.4.1, SVG Export Plug-In . SVG Version: 6.00 Build 0)  -->
<svg version="1.1" id="Capa_1" xmlns="http://www.w3.org/2000/svg" xmlns:xlink="http://www.w3.org/1999/xlink" x="0px" y="0px"
	 viewBox="0 0 393.5 512" style="enable-background:new 0 0 393.5 512;" xml:space="preserve">
<style type="text/css">
	.st0{fill:#00CCFF;}
</style>
<g>
	<g>
		<g>
			<path class="st0" d="M393.5,167.7v295.1c0,27.1-22.1,49.2-49.2,49.2H49.2C22.1,512,0,489.9,0,462.8V167.7
				C0,122,31.5,83.9,73.8,72.8V36.9C73.8,16.5,90.3,0,110.7,0l0,0c20.4,0,36.9,16.5,36.9,36.9v32.5h98.4V36.9
				c0-20.4,16.5-36.9,36.9-36.9l0,0c20.4,0,36.9,16.5,36.9,36.9v35.9C362,83.9,393.5,122,393.5,167.7z M49.2,319.5L49.2,319.5
				c0,13.5,11.1,24.6,24.6,24.6h217.1c2.3,0,4.2,1.9,4.2,4.2v20.4c0,13.5,11.1,24.6,24.6,24.6l0,0c13.5,0,24.6-11.1,24.6-24.6v-49.2
				c0-13.5-11.1-24.6-24.6-24.6H73.8C60.2,294.9,49.2,306,49.2,319.5z"/>
		</g>
	</g>
</g>
</svg>
