<?xml version="1.0" encoding="utf-8"?>
<!-- Generator: Adobe Illustrator 25.4.1, SVG Export Plug-In . SVG Version: 6.00 Build 0)  -->
<svg version="1.1" id="Capa_1" xmlns="http://www.w3.org/2000/svg" xmlns:xlink="http://www.w3.org/1999/xlink" x="0px" y="0px"
	 viewBox="0 0 512 512" style="enable-background:new 0 0 512 512;" xml:space="preserve">
<style type="text/css">
	.st0{fill:#00CCFF;}
</style>
<path class="st0" d="M457.7,82.8L269.4,2.9C265.2,1,260.6,0,256,0c-4.6,0-9.2,1-13.3,2.9L54.3,82.8c-22,9.3-38.4,31-38.3,57.2
	c0.5,99.2,41.3,280.7,213.6,363.2c16.7,8,36.1,8,52.8,0C454.7,420.7,495.5,239.2,496,140C496.1,113.8,479.7,92.1,457.7,82.8z
	 M368.7,219.3l-48.4,47.2l11.4,66.6c1.5,9-7.9,15.8-15.9,11.6L256,313.2l-59.8,31.4c-8.1,4.2-17.5-2.6-15.9-11.6l11.4-66.6
	l-48.4-47.2c-6.5-6.4-2.9-17.4,6.1-18.7l66.9-9.7l29.9-60.6c4-8.2,15.7-8.2,19.7,0l29.9,60.6l66.9,9.7
	C371.6,201.9,375.2,213,368.7,219.3z"/>
</svg>
