<?xml version="1.0" encoding="utf-8"?>
<!-- Generator: Adobe Illustrator 25.4.1, SVG Export Plug-In . SVG Version: 6.00 Build 0)  -->
<svg version="1.1" id="Capa_1" xmlns="http://www.w3.org/2000/svg" xmlns:xlink="http://www.w3.org/1999/xlink" x="0px" y="0px"
	 viewBox="0 0 576 512" style="enable-background:new 0 0 576 512;" xml:space="preserve">
<style type="text/css">
	.st0{fill:#00CCFF;}
</style>
<path class="st0" d="M253.3,35.1c6.1-11.8,1.5-26.3-10.2-32.4s-26.3-1.5-32.4,10.2L117.6,192H32c-17.7,0-32,14.3-32,32
	s14.3,32,32,32l51.9,207.5C91,492,116.6,512,146,512h284c29.4,0,55-20,62.1-48.5L544,256c17.7,0,32-14.3,32-32s-14.3-32-32-32h-85.6
	L365.3,12.9c-6.1-11.7-20.6-16.3-32.4-10.2s-16.3,20.6-10.2,32.4L404.3,192H171.7L253.3,35.1z M195.2,294.5v115
	c0,10.5-8.6,19.2-19.2,19.2s-19.2-8.6-19.2-19.2v-115c0-10.5,8.6-19.2,19.2-19.2S195.2,283.9,195.2,294.5z M288,275.3
	c10.5,0,19.2,8.6,19.2,19.2v115c0,10.5-8.6,19.2-19.2,19.2s-19.2-8.6-19.2-19.2v-115C268.8,283.9,277.5,275.3,288,275.3z
	 M419.2,294.5v115c0,10.5-8.6,19.2-19.2,19.2s-19.2-8.6-19.2-19.2v-115c0-10.5,8.6-19.2,19.2-19.2S419.2,283.9,419.2,294.5z"/>
</svg>
